<svg xmlns="http://www.w3.org/2000/svg" fill="none" viewBox="0 0 71 56" height="56" width="71">
<path fill="#121212" d="M0.003479 0H9.69539C15.1885 0 17.9784 2.75871 17.9784 8.08526V11.6074C17.9784 15.4106 16.5106 17.7772 13.6964 18.6204V19.0125C16.2885 19.8037 17.0207 21.0147 17.3608 26.2233L17.6974 31.4354C18.0374 36.6752 18.374 37.973 19.0785 38.7884L18.9639 39.4374H11.2222C10.7711 37.8307 10.5698 36.2831 10.4067 31.6054L10.2367 26.959C10.0355 22.2813 9.67109 21.6324 8.17896 21.6324H7.33227V39.4374H0.003479V0ZM8.99096 16.1115C10.2298 16.1115 10.7086 15.5216 10.7086 13.8872V7.91176C10.7086 6.22184 10.2298 5.65968 8.99096 5.65968H7.3288V16.1081H8.99096V16.1115Z"></path>
<path fill="#121212" d="M34.5411 33.4931V39.4374H20.0084V0H34.208V5.94423H27.3337V16.1705H33.5035V21.5804H27.3337V33.4966H34.5445L34.5411 33.4931Z"></path>
<path fill="#121212" d="M40.6415 0H50.2744L55.4864 39.4374H47.88L47.4879 34.3953H43.0913L42.6992 39.4374H35.6584L40.6415 0ZM46.8945 29.4088L46.2213 22.6491C45.909 17.6592 45.7147 14.6749 45.5724 9.63292H44.9791C44.868 14.6749 44.6702 17.6592 44.3579 22.6491L43.6535 29.4088H46.8945Z"></path>
<path fill="#121212" d="M56.6072 0H63.9291V33.4931H70.0434V39.4374H56.6072V0Z"></path>
<path fill="#121212" d="M70.0295 42.3105H0V48.0605H70.0295V42.3105Z"></path>
<path fill="#121212" d="M0 50.9337H1.42967L1.95365 52.5924C2.08551 53.1233 2.18961 53.5849 2.27637 54.2476H2.3423C2.43946 53.5814 2.53662 53.1164 2.66154 52.5924L3.1647 50.9337H4.60131V55.9063H3.49783V53.8382C3.5013 53.4842 3.51171 53.1164 3.54641 52.6549L3.47701 52.6479L2.69972 55.9063H1.89813L1.1243 52.6445L1.04449 52.6549C1.07919 53.1164 1.0896 53.4842 1.0896 53.8382V55.9063H0.00347007V50.9337H0Z"></path>
<path fill="#121212" d="M7.90484 54.9763V55.9063H5.12878V50.9337H7.83544V51.8637H6.26697V52.9464H7.70358V53.7584H6.26697V54.9729H7.90137L7.90484 54.9763Z"></path>
<path fill="#121212" d="M8.30736 50.9337H9.58088L10.4796 53.2517C10.5872 53.5293 10.6774 53.8173 10.7815 54.2129L10.8544 54.206C10.8093 53.6855 10.7746 53.2378 10.7746 52.8423V50.9337H11.8746V55.9063H10.5976L9.73703 53.6855C9.6017 53.3107 9.51148 53.0435 9.40044 52.582L9.33103 52.5959C9.37268 53.0782 9.40391 53.6265 9.40391 54.0776V55.9063H8.30389V50.9337H8.30736Z"></path>
<path fill="#121212" d="M13.2279 51.8637H12.1938V50.9337H15.3933V51.8637H14.3626V55.9063H13.2245V51.8637H13.2279Z"></path>
<path fill="#121212" d="M16.3058 50.9337H17.7737L18.9604 55.9063H17.7563L17.621 55.1984H16.3752L16.2399 55.9063H15.1434L16.3093 50.9337H16.3058ZM17.4544 54.383L17.2081 53.217C17.1352 52.7763 17.0762 52.4154 17.0346 51.9921H16.9617C16.927 52.4154 16.868 52.7763 16.7951 53.217L16.5453 54.383H17.4544Z"></path>
<path fill="#121212" d="M19.2589 50.9337H20.4006V54.9763H21.8545V55.9063H19.2624V50.9337H19.2589Z"></path>
<path fill="#121212" d="M26.5183 50.9337V55.9063H25.3801V53.7792H24.3009V55.9063H23.1592V50.9337H24.3009V52.8561H25.3801V50.9337H26.5183Z"></path>
<path fill="#121212" d="M29.8218 54.9763V55.9063H27.0457V50.9337H29.7524V51.8637H28.1839V52.9464H29.6205V53.7584H28.1839V54.9729H29.8183L29.8218 54.9763Z"></path>
<path fill="#121212" d="M31.1578 50.9337H32.6256L33.8124 55.9063H32.6083L32.4729 55.1984H31.2272L31.0918 55.9063H29.9953L31.1612 50.9337H31.1578ZM32.3064 54.383L32.06 53.217C31.9871 52.7763 31.9281 52.4154 31.8865 51.9921H31.8136C31.7789 52.4154 31.7199 52.7763 31.6471 53.217L31.3972 54.383H32.3064Z"></path>
<path fill="#121212" d="M34.1073 50.9337H35.249V54.9763H36.7029V55.9063H34.1108V50.9337H34.1073Z"></path>
<path fill="#121212" d="M37.3726 51.8637H36.3386V50.9337H39.538V51.8637H38.5074V55.9063H37.3692V51.8637H37.3726Z"></path>
<path fill="#121212" d="M43.2128 50.9337V55.9063H42.0746V53.7792H40.9954V55.9063H39.8538V50.9337H40.9954V52.8561H42.0746V50.9337H43.2128Z"></path>
<path fill="#121212" d="M44.6077 54.3447L45.6626 54.2094C45.6834 54.8965 45.857 55.1498 46.3497 55.1498C46.6585 55.1498 46.8425 54.9798 46.8425 54.7264C46.8425 54.4384 46.6655 54.2129 46.1623 53.9283L45.6696 53.6438C45.1629 53.3558 44.6598 53.0018 44.6667 52.2002C44.6702 51.3119 45.2219 50.84 46.2213 50.84C47.2901 50.84 47.8453 51.3501 47.8279 52.4154L46.8355 52.5334C46.8286 51.9296 46.6238 51.6867 46.2074 51.6867C45.9125 51.6867 45.7424 51.8359 45.7424 52.0545C45.7424 52.2905 45.8743 52.4987 46.4087 52.7832L46.9153 53.0573C47.4185 53.3315 47.9563 53.6681 47.9563 54.5287C47.9563 55.4586 47.3456 56 46.2907 56C45.2358 56 44.5938 55.469 44.6043 54.3447H44.6077Z"></path>
<path fill="#121212" d="M51.7248 50.9337V54.5738C51.7248 55.5073 51.1315 56 50.0419 56C48.9523 56 48.3554 55.5107 48.3554 54.5738V50.9337H49.4936V54.5114C49.4936 54.9174 49.681 55.129 50.0453 55.129C50.4097 55.129 50.5901 54.9174 50.5901 54.5114V50.9337H51.7318H51.7248Z"></path>
<path fill="#121212" d="M55.4552 52.3599V52.7277C55.4552 53.6716 54.9624 54.14 53.9561 54.14H53.3801V55.9097H52.2384V50.9371H53.9561C54.9624 50.9371 55.4552 51.4056 55.4552 52.3633V52.3599ZM54.3447 52.7589V52.3217C54.3447 51.9747 54.1886 51.8116 53.8555 51.8116H53.3801V53.2621H53.8555C54.1886 53.2621 54.3447 53.099 54.3447 52.7624V52.7589Z"></path>
<path fill="#121212" d="M59.0502 52.3599V52.7277C59.0502 53.6716 58.5574 54.14 57.5511 54.14H56.9751V55.9097H55.8334V50.9371H57.5511C58.5574 50.9371 59.0502 51.4056 59.0502 52.3633V52.3599ZM57.9432 52.7589V52.3217C57.9432 51.9747 57.7871 51.8116 57.454 51.8116H56.9786V53.2621H57.454C57.7871 53.2621 57.9432 53.099 57.9432 52.7624V52.7589Z"></path>
<path fill="#121212" d="M59.3452 53.9005V52.9914C59.3452 51.5062 59.9351 50.8434 61.1357 50.8434C62.3364 50.8434 62.9263 51.5096 62.9263 52.9914V53.9005C62.9263 55.3545 62.3364 55.9999 61.1357 55.9999C59.9351 55.9999 59.3452 55.3545 59.3452 53.9005ZM61.7777 54.1469V52.745C61.7777 52.0648 61.5695 51.7421 61.1392 51.7421C60.7089 51.7421 60.5007 52.0648 60.5007 52.745V54.1469C60.5007 54.7923 60.7089 55.1046 61.1392 55.1046C61.5695 55.1046 61.7777 54.7923 61.7777 54.1469Z"></path>
<path fill="#121212" d="M63.3669 50.9337H65.1506C66.1256 50.9337 66.6288 51.3744 66.6288 52.1899V52.3495C66.6288 52.9464 66.3234 53.3177 65.7648 53.4079V53.4703C66.1985 53.5987 66.3373 53.7792 66.431 54.3621L66.5282 54.9451C66.6288 55.5246 66.7086 55.6947 66.8474 55.8092L66.8335 55.9063H65.6017C65.501 55.7363 65.4594 55.4969 65.3969 54.9972L65.3345 54.4975C65.2755 53.9978 65.1714 53.852 64.8348 53.852H64.5121V55.9098H63.3704V50.9372L63.3669 50.9337ZM65.043 52.9984C65.3518 52.9984 65.4976 52.8527 65.4976 52.5369V52.2905C65.4976 51.9747 65.3518 51.8325 65.043 51.8325H64.5051V52.9984H65.043Z"></path>
<path fill="#121212" d="M67.8676 51.8637H66.8336V50.9337H70.033V51.8637H69.0024V55.9063H67.8642V51.8637H67.8676Z"></path>
</svg>
